<svg id="Layer_1" data-name="Layer 1" xmlns="http://www.w3.org/2000/svg" viewBox="0 0 609.85 377.84"><defs><style>.cls-1{fill:#0d141c;fill-rule:evenodd;opacity:0.95;}.cls-2{fill:#2a2e3a;}.cls-3{fill:red;}.cls-4,.cls-7{font-size:31.77px;fill:#fff;font-family:Montserrat-Bold, Montserrat;font-weight:700;}.cls-4{letter-spacing:-0.11em;}.cls-5,.cls-7{letter-spacing:-0.1em;}.cls-6{letter-spacing:-0.1em;}.cls-8{letter-spacing:-0.11em;}</style></defs><title>website_icon3</title><path class="cls-1" d="M262.61,176.77A164.39,164.39,0,0,1,304.93,66.26a165.45,165.45,0,0,1,0,221A164.39,164.39,0,0,1,262.61,176.77Z"/><path class="cls-2" d="M262.61,188.93a160.45,160.45,0,0,0,42.32,108.8,161,161,0,1,1,0-217.61A160.45,160.45,0,0,0,262.61,188.93Z"/><path class="cls-3" d="M347.24,188.93a160.45,160.45,0,0,1-42.32,108.8,161,161,0,0,1,0-217.61A160.45,160.45,0,0,1,347.24,188.93Z"/><path class="cls-2" d="M584.66,188.93a161,161,0,0,1-279.73,108.8,161,161,0,0,0,0-217.61,161,161,0,0,1,279.73,108.8Z"/><text class="cls-4" transform="translate(108.98 196.74)">w<tspan class="cls-5" x="26.27" y="0">ebsi</tspan><tspan class="cls-6" x="81.26" y="0">t</tspan><tspan class="cls-5" x="91.97" y="0">e</tspan></text><text class="cls-7" transform="translate(386.94 196.74)">audien<tspan class="cls-8" x="94.03" y="0">c</tspan><tspan x="108.33" y="0">e</tspan></text></svg>